<svg width="182" height="56" viewBox="0 0 182 56" fill="none" xmlns="http://www.w3.org/2000/svg">
<path d="M45.7568 3.41575L39.2554 0L16.8304 15.7183L23.6394 19.2957L45.7568 3.41575Z" fill="#FFCE32"/>
<path d="M16.8287 15.7174L16.9818 23.676L23.3292 27.0109L23.6378 19.2949L16.8287 15.7174Z" fill="#FFD654"/>
<path d="M20.2054 21.4061L19.8639 29.6432L12.5932 25.8232L13.8194 18.051L20.2054 21.4061Z" fill="#2B8F4A"/>
<path d="M29.5263 34.4261L22.9027 39.02L22.7354 47.2997L29.5579 42.5166L29.5263 34.4261Z" fill="#2B8F4A"/>
<path d="M22.9027 39.02L22.7354 47.2997L0 35.3547L0.167255 27.075L22.9027 39.02Z" fill="#3ABE63"/>
<path d="M13.8194 18.051L0.167255 27.075L22.9027 39.02L29.5263 34.4261L13.4845 25.9979L20.2054 21.4061L13.8194 18.051Z" fill="#32A756"/>
<path d="M39.1814 27.5592L45.7074 22.8651L39.4428 19.5737L32.5622 24.0815L39.1814 27.5592Z" fill="#356FC9"/>
<path d="M39.2299 23.5722L32.844 20.2171L35.5285 11.6452L39.3369 13.6461L39.2299 23.5722Z" fill="#EFB704"/>
<path d="M39.2299 23.5722L45.8331 19.0165L45.7568 3.41575L23.5807 19.3138L23.3292 27.0109L39.2933 15.5805L39.2299 23.5722Z" fill="#F9BE02"/>
<path d="M26.0572 40.6774L32.5247 36.0993L40.5648 40.3235L34.2512 44.9824L26.0572 40.6774Z" fill="#356FC9"/>
<path d="M45.7074 22.8651L45.7129 51.1022L38.8294 56L39.1992 27.5196L45.7074 22.8651Z" fill="#3E84F2"/>
<path d="M39.1992 27.5196L32.5825 24.0433L32.5585 44.0931L26.0572 40.6774L25.8471 49.1303L38.8498 55.9617L39.1992 27.5196Z" fill="#4A90FF"/>
<path d="M55.8755 25.2202H78.2494C78.7868 25.2202 79.2265 24.783 79.2265 24.2487V21.334C79.2265 20.7996 78.7868 20.3624 78.2494 20.3624H55.8755C52.6513 20.3624 50.0133 22.9856 50.0133 26.1918V48.5377C50.0133 51.7438 52.6513 54.367 55.8755 54.367H78.2494C78.7868 54.367 79.2265 53.9298 79.2265 53.3954V50.4808C79.2265 49.9464 78.7868 49.5092 78.2494 49.5092H55.8755C55.3381 49.5092 54.8984 49.072 54.8984 48.5377V26.1918C54.8984 25.6574 55.3381 25.2202 55.8755 25.2202Z" fill="black"/>
<path d="M84.2189 21.334V53.3954C84.2189 53.9298 84.6585 54.367 85.1959 54.367H88.6155C88.9086 54.367 89.2017 54.2213 89.3971 53.9784L107.668 28.4264C107.961 28.0377 108.547 28.2321 108.547 28.7178V53.3954C108.547 53.9298 108.987 54.367 109.524 54.367H112.455C112.992 54.367 113.432 53.9298 113.432 53.3954V21.334C113.432 20.7996 112.992 20.3624 112.455 20.3624H107.961C107.619 20.3624 107.326 20.5082 107.179 20.7511L105.03 23.7629L89.9833 44.7486C89.7391 45.1372 89.104 44.9429 89.104 44.4571V21.334C89.104 20.7996 88.6643 20.3624 88.127 20.3624H85.1959C84.6585 20.3624 84.2189 20.7996 84.2189 21.334Z" fill="black"/>
<path d="M147.638 21.334C147.638 20.7996 147.198 20.3624 146.661 20.3624H119.401C118.864 20.3624 118.424 20.7996 118.424 21.334V24.2487C118.424 24.783 118.864 25.2202 119.401 25.2202H129.611C130.149 25.2202 130.588 25.6574 130.588 26.1918V53.3954C130.588 53.9298 131.028 54.367 131.565 54.367H134.497C135.034 54.367 135.474 53.9298 135.474 53.3954V26.1918C135.474 25.6574 135.913 25.2202 136.451 25.2202H146.661C147.198 25.2202 147.638 24.783 147.638 24.2487V21.334Z" fill="black"/>
<path d="M152.63 21.334V53.3954C152.63 53.9298 153.07 54.367 153.607 54.367H157.027C157.32 54.367 157.613 54.2213 157.808 53.9784L176.079 28.4264C176.372 28.0377 176.958 28.2321 176.958 28.7178V53.3954C176.958 53.9298 177.398 54.367 177.935 54.367H180.866C181.403 54.367 181.843 53.9298 181.843 53.3954V21.334C181.843 20.7996 181.403 20.3624 180.866 20.3624H176.372C176.03 20.3624 175.737 20.5082 175.59 20.7511L173.441 23.7629L158.394 44.7486C158.15 45.1372 157.515 44.9429 157.515 44.4571V21.334C157.515 20.7996 157.075 20.3624 156.538 20.3624H153.607C153.07 20.3624 152.63 20.7996 152.63 21.334Z" fill="black"/>
<path d="M60.0473 8.78357H59.0405C58.8495 8.78357 58.6933 8.6282 58.6933 8.43831V3.93274C58.6933 3.74285 58.537 3.58748 58.3461 3.58748H57.3392C57.1309 3.58748 56.992 3.74285 56.992 3.93274V8.43831C56.992 8.6282 56.8358 8.78357 56.6448 8.78357H52.0618C51.8708 8.78357 51.7146 8.6282 51.7146 8.43831V3.93274C51.7146 3.74285 51.5583 3.58748 51.3674 3.58748H50.3605C50.1695 3.58748 50.0133 3.74285 50.0133 3.93274V15.3261C50.0133 15.516 50.1695 15.6714 50.3605 15.6714H51.3674C51.5583 15.6714 51.7146 15.516 51.7146 15.3261V10.8206C51.7146 10.6307 51.8708 10.4753 52.0618 10.4753H58.3461C58.537 10.4753 58.6933 10.6307 58.6933 10.8206V15.3261C58.6933 15.516 58.8495 15.6714 59.0405 15.6714H60.0473C60.2383 15.6714 60.3945 15.516 60.3945 15.3261V9.12882C60.3945 8.93893 60.2383 8.78357 60.0473 8.78357Z" fill="black"/>
<path d="M70.8486 13.5999C70.8486 13.7898 70.6924 13.9451 70.5014 13.9451H64.2518C64.0609 13.9451 63.9046 13.7898 63.9046 13.5999V5.65901C63.9046 5.46912 64.0609 5.31376 64.2518 5.31376H70.5014C70.6924 5.31376 70.8486 5.46912 70.8486 5.65901V13.5999ZM70.5014 3.58748H64.2518C63.1061 3.58748 62.1686 4.51967 62.1686 5.65901V13.5999C62.1686 14.7392 63.1061 15.6714 64.2518 15.6714H70.5014C71.6472 15.6714 72.5846 14.7392 72.5846 13.5999V5.65901C72.5846 4.51967 71.6472 3.58748 70.5014 3.58748Z" fill="black"/>
<path d="M83.0039 3.93274V8.42105C83.0039 8.61094 82.8477 8.7663 82.6567 8.7663H76.4072C76.2162 8.7663 76.06 8.61094 76.06 8.42105V3.93274C76.06 3.74285 75.9037 3.58748 75.7128 3.58748H74.6712C74.4802 3.58748 74.324 3.74285 74.324 3.93274V15.3261C74.324 15.516 74.4802 15.6714 74.6712 15.6714H75.7128C75.9037 15.6714 76.06 15.516 76.06 15.3261V10.8378C76.06 10.6479 76.2162 10.4926 76.4072 10.4926H82.6567C82.8477 10.4926 83.0039 10.6479 83.0039 10.8378V15.3261C83.0039 15.516 83.1602 15.6714 83.3511 15.6714H84.3927C84.5837 15.6714 84.7399 15.516 84.7399 15.3261V3.93274C84.7399 3.74285 84.5837 3.58748 84.3927 3.58748H83.3511C83.1602 3.58748 83.0039 3.74285 83.0039 3.93274Z" fill="black"/>
<path d="M88.5625 5.31376H96.5134C96.7043 5.31376 96.8605 5.15839 96.8605 4.9685V3.93274C96.8605 3.74285 96.7043 3.58748 96.5134 3.58748H88.5625C87.4168 3.58748 86.4793 4.51967 86.4793 5.65901V13.5999C86.4793 14.7392 87.4168 15.6714 88.5625 15.6714H96.5134C96.7043 15.6714 96.8605 15.516 96.8605 15.3261V14.2904C96.8605 14.1005 96.7043 13.9451 96.5134 13.9451H88.5625C88.3716 13.9451 88.2153 13.7898 88.2153 13.5999V5.65901C88.2153 5.46912 88.3716 5.31376 88.5625 5.31376Z" fill="black"/>
<path d="M109.016 3.93274C109.016 3.74285 108.86 3.58748 108.669 3.58748H98.9818C98.7909 3.58748 98.6347 3.74285 98.6347 3.93274V4.9685C98.6347 5.15839 98.7909 5.31376 98.9818 5.31376H102.61C102.801 5.31376 102.957 5.46912 102.957 5.65901V15.3261C102.957 15.516 103.114 15.6714 103.304 15.6714H104.346C104.537 15.6714 104.693 15.516 104.693 15.3261V5.65901C104.693 5.46912 104.85 5.31376 105.04 5.31376H108.669C108.86 5.31376 109.016 5.15839 109.016 4.9685V3.93274Z" fill="black"/>
<path d="M119.487 8.43831C119.487 8.6282 119.331 8.78357 119.14 8.78357H112.873C112.682 8.78357 112.526 8.6282 112.526 8.43831V5.65901C112.526 5.46912 112.682 5.31376 112.873 5.31376H119.14C119.331 5.31376 119.487 5.46912 119.487 5.65901V8.43831ZM119.14 3.58748H112.873C111.727 3.58748 110.79 4.51967 110.79 5.65901V15.3261C110.79 15.516 110.946 15.6714 111.137 15.6714H112.179C112.37 15.6714 112.526 15.516 112.526 15.3261V10.8551C112.526 10.6652 112.682 10.5098 112.873 10.5098H119.14C120.303 10.5098 121.223 9.57765 121.223 8.43831V5.65901C121.223 4.51967 120.303 3.58748 119.14 3.58748Z" fill="black"/>
<path d="M122.945 8.42105C122.945 9.56039 123.883 10.4926 125.029 10.4926H131.278C131.469 10.4926 131.625 10.6479 131.625 10.8378V13.5999C131.625 13.7898 131.469 13.9451 131.278 13.9451H125.029C124.838 13.9451 124.681 14.1005 124.681 14.2904V15.3261C124.681 15.516 124.838 15.6714 125.029 15.6714H131.278C132.424 15.6714 133.361 14.7392 133.361 13.5999V3.93274C133.361 3.74285 133.205 3.58748 133.014 3.58748H131.973C131.782 3.58748 131.625 3.74285 131.625 3.93274V8.42105C131.625 8.61094 131.469 8.7663 131.278 8.7663H125.029C124.838 8.7663 124.681 8.61094 124.681 8.42105V3.93274C124.681 3.74285 124.525 3.58748 124.334 3.58748H123.293C123.102 3.58748 122.945 3.74285 122.945 3.93274V8.42105Z" fill="black"/>
<path d="M145.135 8.78357H144.128C143.937 8.78357 143.781 8.6282 143.781 8.43831V3.93274C143.781 3.74285 143.624 3.58748 143.433 3.58748H142.427C142.218 3.58748 142.079 3.74285 142.079 3.93274V8.43831C142.079 8.6282 141.923 8.78357 141.732 8.78357H137.149C136.958 8.78357 136.802 8.6282 136.802 8.43831V3.93274C136.802 3.74285 136.646 3.58748 136.455 3.58748H135.448C135.257 3.58748 135.101 3.74285 135.101 3.93274V15.3261C135.101 15.516 135.257 15.6714 135.448 15.6714H136.455C136.646 15.6714 136.802 15.516 136.802 15.3261V10.8206C136.802 10.6307 136.958 10.4753 137.149 10.4753H143.433C143.624 10.4753 143.781 10.6307 143.781 10.8206V15.3261C143.781 15.516 143.937 15.6714 144.128 15.6714H145.135C145.326 15.6714 145.482 15.516 145.482 15.3261V9.12882C145.482 8.93893 145.326 8.78357 145.135 8.78357Z" fill="black"/>
<path d="M157.637 3.93274C157.637 3.74285 157.481 3.58748 157.29 3.58748H147.603C147.412 3.58748 147.256 3.74285 147.256 3.93274V4.9685C147.256 5.15839 147.412 5.31376 147.603 5.31376H151.231C151.422 5.31376 151.579 5.46912 151.579 5.65901V15.3261C151.579 15.516 151.735 15.6714 151.926 15.6714H152.967C153.158 15.6714 153.315 15.516 153.315 15.3261V5.65901C153.315 5.46912 153.471 5.31376 153.662 5.31376H157.29C157.481 5.31376 157.637 5.15839 157.637 4.9685V3.93274Z" fill="black"/>
<path d="M168.091 13.5999C168.091 13.7898 167.935 13.9451 167.744 13.9451H161.495C161.304 13.9451 161.147 13.7898 161.147 13.5999V5.65901C161.147 5.46912 161.304 5.31376 161.495 5.31376H167.744C167.935 5.31376 168.091 5.46912 168.091 5.65901V13.5999ZM167.744 3.58748H161.495C160.349 3.58748 159.411 4.51967 159.411 5.65901V13.5999C159.411 14.7392 160.349 15.6714 161.495 15.6714H167.744C168.89 15.6714 169.827 14.7392 169.827 13.5999V5.65901C169.827 4.51967 168.89 3.58748 167.744 3.58748Z" fill="black"/>
<path d="M180.264 8.43831C180.264 8.6282 180.108 8.78357 179.917 8.78357H173.65C173.459 8.78357 173.303 8.6282 173.303 8.43831V5.65901C173.303 5.46912 173.459 5.31376 173.65 5.31376H179.917C180.108 5.31376 180.264 5.46912 180.264 5.65901V8.43831ZM179.917 3.58748H173.65C172.504 3.58748 171.567 4.51967 171.567 5.65901V15.3261C171.567 15.516 171.723 15.6714 171.914 15.6714H172.955C173.146 15.6714 173.303 15.516 173.303 15.3261V10.8551C173.303 10.6652 173.459 10.5098 173.65 10.5098H179.917C181.08 10.5098 182 9.57765 182 8.43831V5.65901C182 4.51967 181.08 3.58748 179.917 3.58748Z" fill="black"/>
</svg>
